<svg width="24" height="24" viewBox="0 0 24 24" fill="none" xmlns="http://www.w3.org/2000/svg">
<path d="M11.999 22.5996C11.7949 22.5996 11.6123 22.5137 11.4619 22.3525L5.72559 16.5625C5.58594 16.4229 5.5 16.2188 5.5 16.0361C5.5 15.6064 5.80078 15.3164 6.20898 15.3164C6.42383 15.3164 6.5957 15.3809 6.71387 15.5098L9.45312 18.292L11.3545 20.3867L11.2793 17.9697V6.5293L11.3545 4.1123L9.45312 6.20703L6.71387 8.98926C6.5957 9.11816 6.42383 9.18262 6.20898 9.18262C5.80078 9.18262 5.5 8.89258 5.5 8.46289C5.5 8.28027 5.58594 8.07617 5.72559 7.93652L11.4619 2.14648C11.6123 1.98535 11.7949 1.89941 11.999 1.89941C12.2031 1.89941 12.3857 1.98535 12.5361 2.14648L18.2832 7.93652C18.4229 8.07617 18.498 8.28027 18.498 8.46289C18.498 8.89258 18.1973 9.18262 17.7891 9.18262C17.5742 9.18262 17.4131 9.11816 17.2842 8.98926L14.5557 6.20703L12.6436 4.1123L12.7188 6.5293V17.9697L12.6436 20.3867L14.5557 18.292L17.2842 15.5098C17.4131 15.3809 17.5742 15.3164 17.7891 15.3164C18.1973 15.3164 18.498 15.6064 18.498 16.0361C18.498 16.2188 18.4229 16.4229 18.2832 16.5625L12.5361 22.3525C12.3857 22.5137 12.2031 22.5996 11.999 22.5996Z" fill="white"/>
</svg>
