<svg width="193" height="193" viewBox="0 0 193 193" fill="none" xmlns="http://www.w3.org/2000/svg">
<rect x="0.5" y="0.5" width="192" height="192" rx="32" fill="white" fill-opacity="0.08"/>
<path d="M79.0625 63.0938V68.6719H113.938V63.0938C113.938 59.4375 111.688 57.3281 107.797 57.3281H85.1094C81.2656 57.3281 79.0625 59.4375 79.0625 63.0938ZM96.5 96.375C77.3281 96.375 60.1719 93.7969 43.3438 86.5312V81.8438C43.3438 72.9844 47.7969 68.6719 56.7031 68.6719H73.4375V63.4219C73.4375 55.7812 77.9844 51.9844 85.25 51.9844H107.703C115.297 51.9844 119.516 55.7812 119.516 63.4219V68.6719H136.25C145.203 68.6719 149.609 72.9844 149.609 81.8438V86.5312C132.828 93.7969 115.672 96.375 96.5 96.375ZM56.7031 141.328C47.7969 141.328 43.3438 137.016 43.3438 128.109V92.5312C57.2188 97.7812 70.7656 100.5 84.5 101.344V105.094C84.5 108.188 86.2812 109.922 89.375 109.922H103.625C106.719 109.922 108.5 108.188 108.5 105.094V101.344C122.234 100.5 135.734 97.7812 149.609 92.5312V128.109C149.609 137.016 145.203 141.328 136.25 141.328H56.7031Z" fill="white"/>
</svg>
