<svg width="24" height="24" viewBox="0 0 24 24" fill="none" xmlns="http://www.w3.org/2000/svg">
<path d="M4.69043 11.675L4.71094 10.7795C5.77279 11.2034 6.90072 11.5133 8.09473 11.7092C9.28874 11.9052 10.5466 12.0032 11.8682 12.0032C13.1943 12.0032 14.4544 11.9075 15.6484 11.7161C16.8424 11.5201 17.9704 11.2148 19.0322 10.8001L19.0527 11.6751C17.9362 12.0715 16.7786 12.3609 15.5801 12.5432C14.3815 12.7255 13.1442 12.8167 11.8682 12.8167C10.5967 12.8167 9.35938 12.7255 8.15625 12.5432C6.95768 12.3609 5.80241 12.0715 4.69043 11.675ZM10.8291 14.0061C10.3551 14.0061 10.1182 13.7737 10.1182 13.3088V12.3792L13.6182 12.3792V13.3088C13.6182 13.7737 13.3812 14.0061 12.9072 14.0061L10.8291 14.0061ZM6.06445 18.5793C5.41732 18.5793 4.93197 18.4198 4.6084 18.1008C4.28483 17.7864 4.12305 17.3033 4.12305 16.6516L4.12305 9.90454C4.12305 9.2574 4.28483 8.77661 4.6084 8.46216C4.93197 8.14315 5.41732 7.98364 6.06446 7.98364L17.6719 7.98364C18.3236 7.98364 18.8112 8.14315 19.1348 8.46216C19.4583 8.77661 19.6201 9.25741 19.6201 9.90454L19.6201 16.6516C19.6201 17.3033 19.4583 17.7864 19.1348 18.1008C18.8112 18.4198 18.3236 18.5793 17.6719 18.5793L6.06445 18.5793ZM6.07129 17.7454L17.665 17.7454C18.0387 17.7454 18.3167 17.6519 18.499 17.4651C18.6859 17.2828 18.7793 17.0002 18.7793 16.6174L18.7793 9.94556C18.7793 9.56275 18.6859 9.28019 18.499 9.0979C18.3167 8.91105 18.0387 8.81763 17.665 8.81763L6.07129 8.81763C5.70215 8.81763 5.42416 8.91105 5.23731 9.0979C5.05501 9.28019 4.96387 9.56274 4.96387 9.94556L4.96387 16.6174C4.96387 17.0002 5.05501 17.2828 5.2373 17.4651C5.42415 17.6519 5.70215 17.7454 6.07129 17.7454ZM8.50489 8.44849V7.21802C8.50489 6.66203 8.65983 6.24504 8.96973 5.96704C9.27963 5.68905 9.6989 5.55005 10.2275 5.55005L13.502 5.55005C14.0579 5.55005 14.4841 5.68905 14.7803 5.96704C15.0811 6.24504 15.2314 6.66203 15.2314 7.21802L15.2314 8.44165L14.4111 8.44165L14.4111 7.17017C14.4111 6.90129 14.3337 6.69393 14.1787 6.5481C14.0238 6.40226 13.805 6.32935 13.5225 6.32935L10.2139 6.32935C9.93132 6.32935 9.71257 6.40226 9.55762 6.5481C9.40267 6.69393 9.3252 6.90129 9.3252 7.17017V8.44849L8.50489 8.44849Z" fill="white"/>
</svg>
