<svg width="32" height="32" viewBox="0 0 32 32" fill="none" xmlns="http://www.w3.org/2000/svg">
<path d="M15.9893 21.6475C15.7637 21.6475 15.5811 21.5508 15.4092 21.3896L7.2666 12.8174C7.12695 12.667 7.04102 12.4951 7.04102 12.2803C7.04102 11.8613 7.36328 11.5391 7.78223 11.5391C7.98633 11.5391 8.17969 11.6143 8.30859 11.7539L16 19.832L23.6699 11.7539C23.8096 11.6143 24.0137 11.5391 24.207 11.5391C24.626 11.5391 24.9482 11.8613 24.9482 12.2803C24.9482 12.4951 24.8623 12.667 24.7227 12.8066L16.5801 21.3789C16.4189 21.5508 16.2148 21.6475 15.9893 21.6475Z" fill="white"/>
</svg>
