<svg width="193" height="192" viewBox="0 0 193 192" fill="none" xmlns="http://www.w3.org/2000/svg">
<rect x="0.5" width="192" height="192" rx="32" fill="white" fill-opacity="0.08"/>
<path d="M65 141.016C63.4531 139.844 63.0781 137.922 64.0625 135.062L74 105.062L48.3125 86.5469C45.875 84.8125 44.9844 83.0312 45.5938 81.1562C46.2031 79.3281 47.9375 78.3906 50.9844 78.3906L82.5781 78.5781L92.2344 48.4375C93.1719 45.5312 94.5312 44.1719 96.5 44.1719C98.4219 44.1719 99.8281 45.5312 100.766 48.4375L110.422 78.5781L142.016 78.3906C145.016 78.3906 146.75 79.3281 147.359 81.1562C147.969 83.0312 147.125 84.8125 144.688 86.5469L118.953 105.062L128.938 135.062C129.922 137.922 129.547 139.844 127.953 141.016C126.406 142.188 124.438 141.859 122.047 140.078L96.5 121.375L70.9531 140.078C68.5156 141.859 66.5938 142.188 65 141.016Z" fill="white"/>
</svg>
