<svg width="24" height="21" viewBox="0 0 24 21" fill="none" xmlns="http://www.w3.org/2000/svg">
<path d="M4.98535 18.1777C3.31543 18.1777 2.48047 17.3691 2.48047 15.6992V7.0332C2.48047 5.37207 3.31543 4.55469 4.98535 4.55469H7.6748V3.5791C7.6748 2.14648 8.52734 1.43457 9.88965 1.43457H14.0996C15.5234 1.43457 16.3232 2.14648 16.3232 3.5791V4.55469H19.0127C20.6914 4.55469 21.5176 5.37207 21.5176 7.0332V15.6992C21.5176 17.3691 20.6914 18.1777 19.0127 18.1777H4.98535ZM8.72949 3.50879V4.55469H15.2686V3.50879C15.2686 2.82324 14.8467 2.43652 14.126 2.43652H9.87207C9.15137 2.43652 8.72949 2.82324 8.72949 3.50879ZM3.57031 7.07715V8.42188C6.09277 9.30957 8.91406 9.72266 11.999 9.72266C15.084 9.72266 17.9053 9.30957 20.4277 8.42188V7.07715C20.4277 6.09277 19.9619 5.63574 19.0039 5.63574H4.99414C4.03613 5.63574 3.57031 6.09277 3.57031 7.07715ZM4.99414 17.1055H19.0039C19.9619 17.1055 20.4277 16.6396 20.4277 15.6553V9.56445C18.4766 10.1797 16.4111 10.5488 14.249 10.6982V11.4014C14.249 11.9727 13.915 12.3066 13.335 12.3066H10.6631C10.083 12.3066 9.74902 11.9727 9.74902 11.4014V10.6982C7.58691 10.5488 5.52148 10.1797 3.57031 9.56445V15.6553C3.57031 16.6396 4.03613 17.1055 4.99414 17.1055Z" fill="white"/>
</svg>
