<svg width="24" height="21" viewBox="0 0 24 21" fill="none" xmlns="http://www.w3.org/2000/svg">
<path d="M11.1123 19.9092C10.4883 19.9092 10.04 19.54 9.89062 18.9336L9.50391 17.2373L9.07324 17.0879L7.60547 18.002C7.07812 18.3447 6.48926 18.2656 6.0498 17.8262L4.81934 16.5957C4.37109 16.1562 4.30078 15.5674 4.63477 15.04L5.55762 13.5723L5.4082 13.1592L3.7207 12.7725C3.11426 12.623 2.74512 12.166 2.74512 11.5508V9.80176C2.74512 9.18652 3.10547 8.72949 3.7207 8.58008L5.39062 8.17578L5.55762 7.7627L4.63477 6.29492C4.29199 5.76758 4.37109 5.1875 4.81055 4.73926L6.0498 3.5C6.48047 3.06934 7.06055 2.99023 7.59668 3.32422L9.06445 4.23828L9.50391 4.08008L9.89062 2.38379C10.04 1.76855 10.4883 1.4082 11.1123 1.4082H12.8877C13.5029 1.4082 13.96 1.76855 14.1094 2.38379L14.4961 4.08008L14.9268 4.23828L16.3945 3.32422C16.9307 2.99023 17.5107 3.06934 17.9502 3.5L19.1807 4.73926C19.6289 5.1875 19.6992 5.76758 19.3652 6.29492L18.4336 7.7627L18.6006 8.17578L20.2793 8.58008C20.8857 8.72949 21.2549 9.18652 21.2549 9.80176V11.5508C21.2549 12.166 20.8857 12.623 20.2793 12.7725L18.583 13.1592L18.4336 13.5723L19.3564 15.04C19.6904 15.5674 19.6201 16.1562 19.1719 16.5957L17.9414 17.8262C17.502 18.2656 16.9131 18.3447 16.3857 18.002L14.918 17.0879L14.4961 17.2373L14.1094 18.9336C13.96 19.54 13.5029 19.9092 12.8877 19.9092H11.1123ZM11.2266 18.8457H12.7734C12.9844 18.8457 13.0986 18.7578 13.1338 18.5557L13.6436 16.4199C14.1357 16.2881 14.584 16.1035 14.9355 15.9014L16.7988 17.0615C16.9658 17.167 17.124 17.1494 17.2822 17L18.3545 15.9277C18.4951 15.7783 18.5127 15.6289 18.3984 15.4531L17.2471 13.5898C17.4316 13.2471 17.625 12.79 17.7568 12.2979L19.9014 11.7969C20.0947 11.7617 20.1914 11.6475 20.1914 11.4365V9.90723C20.1914 9.69629 20.1035 9.58203 19.9014 9.53809L17.7656 9.03711C17.6338 8.52734 17.4141 8.06152 17.2559 7.73633L18.4072 5.88184C18.5215 5.69727 18.5127 5.54785 18.3633 5.39844L17.291 4.33496C17.1328 4.18555 16.9834 4.16797 16.7988 4.27344L14.9443 5.4248C14.5752 5.24023 14.1357 5.03809 13.6436 4.91504L13.1338 2.76172C13.0986 2.55957 12.9844 2.47168 12.7734 2.47168H11.2266C11.0156 2.47168 10.9014 2.56836 10.8662 2.76172L10.3652 4.89746C9.89062 5.03809 9.39844 5.23145 9.03809 5.41602L7.19238 4.27344C7.00781 4.16797 6.8584 4.18555 6.7002 4.33496L5.62793 5.39844C5.47852 5.54785 5.46973 5.69727 5.58398 5.88184L6.73535 7.73633C6.58594 8.06152 6.36621 8.53613 6.23438 9.03711L4.09863 9.53809C3.89648 9.58203 3.7998 9.69629 3.7998 9.90723V11.4365C3.7998 11.6475 3.90527 11.7617 4.09863 11.7969L6.24316 12.2979C6.36621 12.7812 6.57715 13.2471 6.74414 13.5898L5.59277 15.4531C5.47852 15.6289 5.49609 15.7783 5.64551 15.9277L6.70898 17C6.86719 17.1494 7.02539 17.167 7.19238 17.0615L9.05566 15.9014C9.41602 16.1035 9.87305 16.2881 10.3564 16.4199L10.8662 18.5557C10.9014 18.749 11.0156 18.8457 11.2266 18.8457ZM12 14.0205C10.1631 14.0205 8.64258 12.5 8.64258 10.6543C8.64258 8.82617 10.1631 7.31445 12 7.31445C13.8457 7.31445 15.3574 8.82617 15.3574 10.6543C15.3574 12.5 13.8457 14.0205 12 14.0205ZM12 12.9658C13.248 12.9658 14.2939 11.9111 14.2939 10.6543C14.2939 9.40625 13.248 8.36035 12 8.36035C10.7432 8.36035 9.69727 9.40625 9.69727 10.6543C9.69727 11.9199 10.7432 12.9658 12 12.9658Z" fill="white"/>
</svg>
