<svg width="24" height="21" viewBox="0 0 24 21" fill="none" xmlns="http://www.w3.org/2000/svg">
<path d="M11.999 19.4697C7.17383 19.4697 3.18359 15.4795 3.18359 10.6543C3.18359 5.82031 7.16504 1.83887 11.9902 1.83887C16.8242 1.83887 20.8145 5.82031 20.8145 10.6543C20.8145 15.4795 16.8242 19.4697 11.999 19.4697ZM7.21777 11.5156H11.9902C12.2715 11.5156 12.4824 11.3047 12.4824 11.0322V4.87109C12.4824 4.59863 12.2715 4.39648 11.9902 4.39648C11.7266 4.39648 11.5156 4.59863 11.5156 4.87109V10.5576H7.21777C6.94531 10.5576 6.74316 10.7686 6.74316 11.0322C6.74316 11.3047 6.94531 11.5156 7.21777 11.5156Z" fill="white"/>
</svg>
